<?xml version="1.0" encoding="UTF-8"?><svg xmlns="http://www.w3.org/2000/svg" xmlns:xlink="http://www.w3.org/1999/xlink" contentScriptType="text/ecmascript" width="375pt" zoomAndPan="magnify" contentStyleType="text/css" viewBox="0 0 375 374.999991" height="374.999991pt" preserveAspectRatio="xMidYMid meet" version="1.2"><defs><g/><clipPath xml:id="clip1" id="clip1"><path d="M 141.929688 89.871094 L 232.777344 89.871094 L 232.777344 128 L 141.929688 128 Z M 141.929688 89.871094 "/></clipPath><clipPath xml:id="clip2" id="clip2"><path d="M 141.929688 127 L 209 127 L 209 191.316406 L 141.929688 191.316406 Z M 141.929688 127 "/></clipPath></defs><g xml:id="surface1" id="surface1"><g clip-rule="nonzero" clip-path="url(#clip1)"><path style=" stroke:none;fill-rule:nonzero;fill:rgb(1.959229%,87.838745%,91.369629%);fill-opacity:1;" d="M 153.460938 89.96875 L 221.265625 89.96875 C 222.023438 89.96875 222.773438 90.042969 223.515625 90.191406 C 224.261719 90.339844 224.980469 90.558594 225.679688 90.851562 C 226.378906 91.140625 227.042969 91.496094 227.675781 91.917969 C 228.304688 92.339844 228.886719 92.820312 229.421875 93.355469 C 229.957031 93.894531 230.433594 94.476562 230.855469 95.109375 C 231.277344 95.742188 231.632812 96.40625 231.921875 97.109375 C 232.210938 97.8125 232.429688 98.535156 232.578125 99.277344 C 232.726562 100.023438 232.800781 100.777344 232.800781 101.535156 L 232.800781 115.648438 C 232.800781 116.410156 232.726562 117.160156 232.578125 117.90625 C 232.429688 118.648438 232.210938 119.375 231.921875 120.074219 C 231.632812 120.777344 231.277344 121.441406 230.855469 122.074219 C 230.433594 122.707031 229.957031 123.289062 229.421875 123.828125 C 228.886719 124.363281 228.304688 124.84375 227.675781 125.265625 C 227.042969 125.6875 226.378906 126.042969 225.679688 126.332031 C 224.980469 126.625 224.261719 126.84375 223.515625 126.992188 C 222.773438 127.140625 222.023438 127.214844 221.265625 127.214844 L 141.929688 127.214844 L 141.929688 101.535156 C 141.929688 100.777344 142.003906 100.023438 142.152344 99.277344 C 142.296875 98.535156 142.515625 97.8125 142.808594 97.109375 C 143.097656 96.40625 143.453125 95.742188 143.871094 95.109375 C 144.292969 94.476562 144.769531 93.894531 145.308594 93.355469 C 145.84375 92.820312 146.425781 92.339844 147.054688 91.917969 C 147.683594 91.496094 148.347656 91.140625 149.046875 90.851562 C 149.746094 90.558594 150.46875 90.339844 151.210938 90.191406 C 151.953125 90.042969 152.703125 89.96875 153.460938 89.96875 Z M 153.460938 89.96875 "/></g><g clip-rule="nonzero" clip-path="url(#clip2)"><path style=" stroke:none;fill-rule:nonzero;fill:rgb(1.959229%,87.838745%,91.369629%);fill-opacity:1;" d="M 196.582031 127.214844 L 141.929688 127.214844 L 141.929688 191.214844 L 168.609375 164.449219 L 196.582031 164.449219 C 197.335938 164.449219 198.085938 164.375 198.832031 164.226562 C 199.574219 164.078125 200.292969 163.859375 200.992188 163.570312 C 201.691406 163.277344 202.359375 162.921875 202.988281 162.5 C 203.617188 162.078125 204.199219 161.597656 204.734375 161.0625 C 205.269531 160.523438 205.746094 159.941406 206.167969 159.308594 C 206.589844 158.679688 206.945312 158.011719 207.234375 157.308594 C 207.523438 156.609375 207.742188 155.886719 207.890625 155.140625 C 208.039062 154.394531 208.113281 153.644531 208.113281 152.882812 L 208.113281 138.773438 C 208.113281 138.015625 208.039062 137.261719 207.890625 136.519531 C 207.742188 135.773438 207.523438 135.050781 207.234375 134.351562 C 206.941406 133.648438 206.585938 132.984375 206.167969 132.351562 C 205.746094 131.71875 205.269531 131.136719 204.734375 130.601562 C 204.199219 130.0625 203.613281 129.582031 202.984375 129.164062 C 202.355469 128.742188 201.691406 128.382812 200.992188 128.09375 C 200.292969 127.804688 199.570312 127.585938 198.828125 127.4375 C 198.085938 127.289062 197.335938 127.214844 196.582031 127.214844 Z M 196.582031 127.214844 "/><path style=" stroke:none;fill-rule:nonzero;fill:rgb(100%,41.958618%,41.958618%);fill-opacity:1;" d="M 196.582031 127.214844 L 153.460938 127.214844 C 152.703125 127.214844 151.953125 127.289062 151.210938 127.4375 C 150.46875 127.585938 149.746094 127.804688 149.046875 128.09375 C 148.347656 128.386719 147.683594 128.742188 147.054688 129.164062 C 146.425781 129.585938 145.84375 130.066406 145.308594 130.601562 C 144.769531 131.136719 144.292969 131.722656 143.871094 132.355469 C 143.453125 132.984375 143.097656 133.652344 142.808594 134.351562 C 142.515625 135.054688 142.296875 135.777344 142.152344 136.523438 C 142.003906 137.269531 141.929688 138.019531 141.929688 138.777344 L 141.929688 191.214844 L 164.128906 168.949219 C 165.5625 167.511719 167.21875 166.402344 169.09375 165.621094 C 170.964844 164.839844 172.917969 164.449219 174.945312 164.449219 L 196.582031 164.449219 C 197.335938 164.449219 198.085938 164.375 198.832031 164.226562 C 199.574219 164.078125 200.292969 163.859375 200.992188 163.570312 C 201.691406 163.277344 202.359375 162.921875 202.988281 162.5 C 203.617188 162.078125 204.199219 161.597656 204.734375 161.0625 C 205.269531 160.523438 205.746094 159.941406 206.167969 159.308594 C 206.589844 158.679688 206.945312 158.011719 207.234375 157.308594 C 207.523438 156.609375 207.742188 155.886719 207.890625 155.140625 C 208.039062 154.394531 208.113281 153.644531 208.113281 152.882812 L 208.113281 138.773438 C 208.113281 138.015625 208.039062 137.261719 207.890625 136.519531 C 207.742188 135.773438 207.523438 135.050781 207.234375 134.351562 C 206.941406 133.648438 206.585938 132.984375 206.167969 132.351562 C 205.746094 131.71875 205.269531 131.136719 204.734375 130.601562 C 204.199219 130.0625 203.613281 129.582031 202.984375 129.164062 C 202.355469 128.742188 201.691406 128.382812 200.992188 128.09375 C 200.292969 127.804688 199.570312 127.585938 198.828125 127.4375 C 198.085938 127.289062 197.335938 127.214844 196.582031 127.214844 Z M 196.582031 127.214844 "/></g><path style="fill:none;stroke-width:1;stroke-linecap:round;stroke-linejoin:miter;stroke:rgb(10.5896%,4.708862%,15.289307%);stroke-opacity:1;stroke-miterlimit:4;" d="M 0.500097 0.000124007 L 8.776224 0.000124007 " transform="matrix(3.754682,0,0,3.78529,159.028544,146.233906)"/><path style="fill:none;stroke-width:1;stroke-linecap:round;stroke-linejoin:miter;stroke:rgb(10.5896%,4.708862%,15.289307%);stroke-opacity:1;stroke-miterlimit:4;" d="M 0.500501 0.000184675 L 14.543095 0.000184675 " transform="matrix(3.775066,0,0,3.78529,159.028544,108.835238)"/><g style="fill:rgb(10.5896%,4.708862%,15.289307%);fill-opacity:1;"><g transform="translate(37.828127, 243.093178)"><path style="stroke:none;" d="M 22.4375 -32.15625 L 12.359375 -32.15625 L 12.359375 -34.675781 C 12.359375 -39.234375 14.160156 -40.976562 18.71875 -40.976562 L 22.378906 -40.976562 L 22.378906 -45.113281 L 17.816406 -45.113281 C 10.558594 -45.113281 7.378906 -41.695312 7.378906 -34.796875 L 7.378906 -32.15625 L 1.019531 -32.15625 L 1.019531 -27.898438 L 7.378906 -27.898438 L 7.378906 0 L 12.476562 0 L 12.476562 -27.898438 L 22.4375 -27.898438 Z M 22.4375 -32.15625 "/></g></g><g style="fill:rgb(10.5896%,4.708862%,15.289307%);fill-opacity:1;"><g transform="translate(61.04361, 243.093178)"><path style="stroke:none;" d="M 5.097656 0 L 10.199219 0 L 10.199219 -43.914062 L 5.097656 -43.914062 Z M 5.097656 0 "/></g></g><g style="fill:rgb(10.5896%,4.708862%,15.289307%);fill-opacity:1;"><g transform="translate(76.400618, 243.093178)"><path style="stroke:none;" d="M 4.917969 -37.976562 L 10.4375 -37.976562 L 10.4375 -43.792969 L 4.917969 -43.792969 Z M 5.097656 0 L 10.199219 0 L 10.199219 -32.394531 L 5.097656 -32.394531 Z M 5.097656 0 "/></g></g><g style="fill:rgb(10.5896%,4.708862%,15.289307%);fill-opacity:1;"><g transform="translate(91.757627, 243.093178)"><path style="stroke:none;" d="M 19.378906 0.71875 C 27.054688 0.71875 33.234375 -3.898438 35.214844 -11.039062 L 30.054688 -11.039062 C 28.078125 -6.71875 24.117188 -4.199219 19.378906 -4.199219 C 12.777344 -4.199219 7.738281 -9.417969 7.738281 -16.199219 C 7.738281 -22.917969 12.71875 -28.136719 19.378906 -28.136719 C 24.175781 -28.136719 28.195312 -25.617188 30.054688 -21.417969 L 35.15625 -21.417969 C 33.175781 -28.496094 27.117188 -33.054688 19.378906 -33.054688 C 9.777344 -33.054688 2.519531 -25.855469 2.519531 -16.199219 C 2.519531 -6.539062 9.777344 0.71875 19.378906 0.71875 Z M 19.378906 0.71875 "/></g></g><g style="fill:rgb(10.5896%,4.708862%,15.289307%);fill-opacity:1;"><g transform="translate(128.950385, 243.093178)"><path style="stroke:none;" d="M 19.738281 0.71875 C 29.515625 0.71875 36.894531 -6.480469 36.894531 -16.199219 C 36.894531 -25.855469 29.515625 -33.054688 19.738281 -33.054688 C 9.898438 -33.054688 2.519531 -25.917969 2.519531 -16.199219 C 2.519531 -6.480469 9.898438 0.71875 19.738281 0.71875 Z M 19.738281 -4.199219 C 12.777344 -4.199219 7.738281 -9.238281 7.738281 -16.199219 C 7.738281 -23.097656 12.777344 -28.136719 19.738281 -28.136719 C 26.636719 -28.136719 31.675781 -23.097656 31.675781 -16.136719 C 31.675781 -9.238281 26.636719 -4.199219 19.738281 -4.199219 Z M 19.738281 -4.199219 "/></g></g><g style="fill:rgb(10.5896%,4.708862%,15.289307%);fill-opacity:1;"><g transform="translate(168.482681, 243.093178)"><path style="stroke:none;" d="M 4.078125 -14.277344 L 23.15625 -14.277344 L 23.15625 -19.199219 L 4.078125 -19.199219 Z M 4.078125 -14.277344 "/></g></g><g style="fill:rgb(10.5896%,4.708862%,15.289307%);fill-opacity:1;"><g transform="translate(195.777365, 243.093178)"><path style="stroke:none;" d="M 19.378906 0.71875 C 27.054688 0.71875 33.234375 -3.898438 35.214844 -11.039062 L 30.054688 -11.039062 C 28.078125 -6.71875 24.117188 -4.199219 19.378906 -4.199219 C 12.777344 -4.199219 7.738281 -9.417969 7.738281 -16.199219 C 7.738281 -22.917969 12.71875 -28.136719 19.378906 -28.136719 C 24.175781 -28.136719 28.195312 -25.617188 30.054688 -21.417969 L 35.15625 -21.417969 C 33.175781 -28.496094 27.117188 -33.054688 19.378906 -33.054688 C 9.777344 -33.054688 2.519531 -25.855469 2.519531 -16.199219 C 2.519531 -6.539062 9.777344 0.71875 19.378906 0.71875 Z M 19.378906 0.71875 "/></g></g><g style="fill:rgb(10.5896%,4.708862%,15.289307%);fill-opacity:1;"><g transform="translate(232.970112, 243.093178)"><path style="stroke:none;" d="M 21.296875 -33.054688 C 16.617188 -33.054688 12.71875 -31.136719 10.199219 -27.957031 L 10.199219 -43.914062 L 5.097656 -43.914062 L 5.097656 0 L 10.199219 0 L 10.199219 -17.636719 C 10.199219 -23.695312 14.457031 -28.4375 20.039062 -28.4375 C 25.617188 -28.4375 28.738281 -24.71875 28.738281 -18.175781 L 28.738281 0 L 33.835938 0 L 33.835938 -19.378906 C 33.835938 -27.777344 29.035156 -33.054688 21.296875 -33.054688 Z M 21.296875 -33.054688 "/></g></g><g style="fill:rgb(10.5896%,4.708862%,15.289307%);fill-opacity:1;"><g transform="translate(271.482614, 243.093178)"><path style="stroke:none;" d="M 32.757812 -32.394531 L 32.097656 -27.417969 C 29.097656 -30.957031 24.597656 -33.054688 19.316406 -33.054688 C 9.71875 -33.054688 2.519531 -25.855469 2.519531 -16.136719 C 2.519531 -6.539062 9.71875 0.71875 19.316406 0.71875 C 24.597656 0.71875 29.035156 -1.378906 32.035156 -4.859375 L 32.574219 0 L 36.777344 0 L 36.777344 -32.394531 Z M 19.675781 -4.199219 C 12.839844 -4.199219 7.738281 -9.359375 7.738281 -16.199219 C 7.738281 -22.976562 12.839844 -28.136719 19.675781 -28.136719 C 26.578125 -28.136719 31.554688 -23.039062 31.554688 -16.199219 C 31.554688 -9.300781 26.578125 -4.199219 19.675781 -4.199219 Z M 19.675781 -4.199219 "/></g></g><g style="fill:rgb(10.5896%,4.708862%,15.289307%);fill-opacity:1;"><g transform="translate(313.41445, 243.093178)"><path style="stroke:none;" d="M 18.539062 -4.679688 C 14.097656 -4.679688 11.699219 -7.078125 11.699219 -11.457031 L 11.699219 -27.777344 L 21.898438 -27.777344 L 21.898438 -32.394531 L 11.699219 -32.394531 L 11.699219 -39.234375 L 10.917969 -39.234375 L 0.898438 -28.675781 L 0.898438 -27.777344 L 6.597656 -27.777344 L 6.597656 -11.277344 C 6.597656 -4.257812 10.917969 0 17.878906 0 L 22.078125 0 L 22.078125 -4.679688 Z M 18.539062 -4.679688 "/></g></g></g></svg>